# xmcd CD database file
#
# Track frame offsets:
#	150
#	10978
#	21507
#	33109
#	53376
#	69805
#	81163
#	90988
#	104338
#	117117
#	131965
#	142097
#
# Disc length: 2174 seconds
#
# Revision: 0
# Processed by: cddbd v1.5.2PL0 Copyright (c) Steve Scherf et al.
# Submitted via: CDex 1.79
#
DISCID=94087c0c
DTITLE=Louis Armstrong - Hello Dolly
DYEAR=1964
DGENRE=Jazz
TTITLE0=Hello Dolly
TTITLE1=It's been a long long time
TTITLE2=A lot of livin' to do
TTITLE3=A kiss to build a dream on
TTITLE4=Someday
TTITLE5=Hey look me over
TTITLE6=I still get jealous
TTITLE7=Moon River
TTITLE8=Be my life's companion
TTITLE9=Blueberry Hill
TTITLE10=You are women I am men
TTITLE11=Jeepers creepers
EXTD=YEAR: 1964
EXTT0=
EXTT1=
EXTT2=
EXTT3=
EXTT4=
EXTT5=
EXTT6=
EXTT7=
EXTT8=
EXTT9=
EXTT10=
EXTT11=
PLAYORDER=
